<mxfile host="app.diagrams.net" modified="2024-03-24T03:03:31.001Z" agent="Mozilla/5.0 (Windows NT 10.0; Win64; x64) AppleWebKit/537.36 (KHTML, like Gecko) Chrome/122.0.0.0 Safari/537.36 Edg/122.0.0.0" etag="ndevE-D9yqZP4HYela5S" version="24.0.7" type="github">
  <diagram name="Page-1" id="9stJDIrptKMzqkHC4iJv">
    <mxGraphModel dx="1189" dy="679" grid="1" gridSize="10" guides="1" tooltips="1" connect="1" arrows="1" fold="1" page="1" pageScale="1" pageWidth="850" pageHeight="1100" math="0" shadow="0">
      <root>
        <mxCell id="0" />
        <mxCell id="1" parent="0" />
        <mxCell id="aTRD9flVusNCMsegPyxG-2" value="&lt;b&gt;TelematicsAnalytics&lt;/b&gt;" style="shape=hexagon;perimeter=hexagonPerimeter2;whiteSpace=wrap;html=1;fixedSize=1;fillColor=#fff2cc;strokeColor=#d6b656;" vertex="1" parent="1">
          <mxGeometry x="80" y="165" width="120" height="80" as="geometry" />
        </mxCell>
        <mxCell id="aTRD9flVusNCMsegPyxG-3" value="&lt;b&gt;FleetOptimization&lt;/b&gt;" style="shape=hexagon;perimeter=hexagonPerimeter2;whiteSpace=wrap;html=1;fixedSize=1;fillColor=#f8cecc;strokeColor=#b85450;" vertex="1" parent="1">
          <mxGeometry x="690" y="129" width="120" height="80" as="geometry" />
        </mxCell>
        <mxCell id="aTRD9flVusNCMsegPyxG-5" value="" style="whiteSpace=wrap;html=1;aspect=fixed;fillColor=#d5e8d4;strokeColor=#82b366;" vertex="1" parent="1">
          <mxGeometry x="290" y="110" width="300" height="300" as="geometry" />
        </mxCell>
        <mxCell id="aTRD9flVusNCMsegPyxG-6" value="&lt;b&gt;&lt;br&gt;&lt;/b&gt;&lt;div style=&quot;color: rgb(0, 0, 0); background-color: rgb(255, 255, 255); font-family: Consolas, &amp;quot;Courier New&amp;quot;, monospace; font-size: 14px; line-height: 19px; white-space: pre;&quot;&gt;&lt;div&gt;&lt;span style=&quot;color: #a31515;&quot;&gt;&lt;b&gt;telematics-&lt;/b&gt;&lt;/span&gt;&lt;/div&gt;&lt;div&gt;&lt;span style=&quot;color: #a31515;&quot;&gt;&lt;b&gt;data-topic&lt;/b&gt;&lt;/span&gt;&lt;/div&gt;&lt;/div&gt;&lt;div&gt;&lt;br&gt;&lt;/div&gt;" style="rounded=1;whiteSpace=wrap;html=1;fillColor=#e1d5e7;strokeColor=#9673a6;" vertex="1" parent="1">
          <mxGeometry x="320" y="140" width="120" height="60" as="geometry" />
        </mxCell>
        <mxCell id="aTRD9flVusNCMsegPyxG-7" value="&lt;div&gt;&lt;br&gt;&lt;/div&gt;&lt;div&gt;&lt;div style=&quot;background-color: rgb(255, 255, 255); font-family: Consolas, &amp;quot;Courier New&amp;quot;, monospace; font-size: 14px; line-height: 19px; white-space: pre;&quot;&gt;&lt;div&gt;&lt;span style=&quot;color: rgb(163, 21, 21);&quot;&gt;&lt;b&gt;Vehicle-&lt;/b&gt;&lt;/span&gt;&lt;/div&gt;&lt;div&gt;&lt;span style=&quot;color: rgb(163, 21, 21);&quot;&gt;&lt;b&gt;Inventory-topic&lt;/b&gt;&lt;/span&gt;&lt;/div&gt;&lt;/div&gt;&lt;div&gt;&lt;br&gt;&lt;/div&gt;&lt;/div&gt;" style="rounded=1;whiteSpace=wrap;html=1;fillColor=#e1d5e7;strokeColor=#9673a6;" vertex="1" parent="1">
          <mxGeometry x="320" y="280" width="120" height="60" as="geometry" />
        </mxCell>
        <mxCell id="aTRD9flVusNCMsegPyxG-8" value="&lt;div&gt;&lt;br&gt;&lt;/div&gt;&lt;div&gt;&lt;div style=&quot;background-color: rgb(255, 255, 255); font-family: Consolas, &amp;quot;Courier New&amp;quot;, monospace; font-size: 14px; line-height: 19px; white-space: pre;&quot;&gt;&lt;div&gt;&lt;span style=&quot;color: rgb(163, 21, 21);&quot;&gt;&lt;b&gt;consumer-&lt;/b&gt;&lt;/span&gt;&lt;/div&gt;&lt;div&gt;&lt;span style=&quot;color: rgb(163, 21, 21);&quot;&gt;&lt;b&gt;data-topic&lt;/b&gt;&lt;/span&gt;&lt;/div&gt;&lt;/div&gt;&lt;div&gt;&lt;br&gt;&lt;/div&gt;&lt;/div&gt;" style="rounded=1;whiteSpace=wrap;html=1;fillColor=#e1d5e7;strokeColor=#9673a6;" vertex="1" parent="1">
          <mxGeometry x="460" y="210" width="120" height="60" as="geometry" />
        </mxCell>
        <mxCell id="aTRD9flVusNCMsegPyxG-9" value="&lt;b&gt;Vehicle Inventory&lt;/b&gt;" style="shape=hexagon;perimeter=hexagonPerimeter2;whiteSpace=wrap;html=1;fixedSize=1;fillColor=#fff2cc;strokeColor=#d6b656;" vertex="1" parent="1">
          <mxGeometry x="80" y="320" width="120" height="80" as="geometry" />
        </mxCell>
        <mxCell id="aTRD9flVusNCMsegPyxG-10" value="&lt;b&gt;SafetyAlerts&lt;/b&gt;" style="shape=hexagon;perimeter=hexagonPerimeter2;whiteSpace=wrap;html=1;fixedSize=1;fillColor=#f8cecc;strokeColor=#b85450;" vertex="1" parent="1">
          <mxGeometry x="690" y="245" width="120" height="80" as="geometry" />
        </mxCell>
        <mxCell id="aTRD9flVusNCMsegPyxG-11" value="&lt;font style=&quot;font-size: 24px;&quot;&gt;Broker /Topics&lt;/font&gt;" style="text;html=1;align=center;verticalAlign=middle;whiteSpace=wrap;rounded=0;fillColor=#e1d5e7;strokeColor=#9673a6;" vertex="1" parent="1">
          <mxGeometry x="350" y="50" width="170" height="30" as="geometry" />
        </mxCell>
        <mxCell id="aTRD9flVusNCMsegPyxG-12" value="&lt;font style=&quot;font-size: 24px;&quot;&gt;Producers&lt;/font&gt;" style="text;html=1;align=center;verticalAlign=middle;whiteSpace=wrap;rounded=0;fillColor=#fff2cc;strokeColor=#d6b656;" vertex="1" parent="1">
          <mxGeometry x="100" y="60" width="120" height="40" as="geometry" />
        </mxCell>
        <mxCell id="aTRD9flVusNCMsegPyxG-13" value="&lt;font style=&quot;font-size: 24px;&quot;&gt;Consumers&lt;/font&gt;" style="text;html=1;align=center;verticalAlign=middle;whiteSpace=wrap;rounded=0;fillColor=#f8cecc;strokeColor=#b85450;" vertex="1" parent="1">
          <mxGeometry x="670" y="50" width="130" height="30" as="geometry" />
        </mxCell>
        <mxCell id="aTRD9flVusNCMsegPyxG-14" value="" style="endArrow=classic;html=1;rounded=0;exitX=1;exitY=0.5;exitDx=0;exitDy=0;" edge="1" parent="1" source="aTRD9flVusNCMsegPyxG-2">
          <mxGeometry width="50" height="50" relative="1" as="geometry">
            <mxPoint x="400" y="330" as="sourcePoint" />
            <mxPoint x="280" y="180" as="targetPoint" />
          </mxGeometry>
        </mxCell>
        <mxCell id="aTRD9flVusNCMsegPyxG-17" value="&lt;b&gt;Subscription&lt;/b&gt;" style="shape=hexagon;perimeter=hexagonPerimeter2;whiteSpace=wrap;html=1;fixedSize=1;fillColor=#f8cecc;strokeColor=#b85450;" vertex="1" parent="1">
          <mxGeometry x="690" y="362" width="120" height="80" as="geometry" />
        </mxCell>
        <mxCell id="aTRD9flVusNCMsegPyxG-19" value="" style="endArrow=classic;html=1;rounded=0;exitX=1;exitY=0.5;exitDx=0;exitDy=0;entryX=-0.004;entryY=0.552;entryDx=0;entryDy=0;entryPerimeter=0;" edge="1" parent="1" source="aTRD9flVusNCMsegPyxG-9" target="aTRD9flVusNCMsegPyxG-5">
          <mxGeometry width="50" height="50" relative="1" as="geometry">
            <mxPoint x="210" y="215" as="sourcePoint" />
            <mxPoint x="290" y="190" as="targetPoint" />
          </mxGeometry>
        </mxCell>
        <mxCell id="aTRD9flVusNCMsegPyxG-20" value="Events" style="text;html=1;align=center;verticalAlign=middle;whiteSpace=wrap;rounded=0;fillColor=#fff2cc;strokeColor=#d6b656;" vertex="1" parent="1">
          <mxGeometry x="200" y="140" width="60" height="30" as="geometry" />
        </mxCell>
        <mxCell id="aTRD9flVusNCMsegPyxG-21" value="Events" style="text;html=1;align=center;verticalAlign=middle;whiteSpace=wrap;rounded=0;fillColor=#fff2cc;strokeColor=#d6b656;" vertex="1" parent="1">
          <mxGeometry x="190" y="270" width="60" height="30" as="geometry" />
        </mxCell>
        <mxCell id="aTRD9flVusNCMsegPyxG-22" value="Message" style="text;html=1;align=center;verticalAlign=middle;whiteSpace=wrap;rounded=0;fillColor=#f8cecc;strokeColor=#b85450;" vertex="1" parent="1">
          <mxGeometry x="620" y="120" width="60" height="30" as="geometry" />
        </mxCell>
        <mxCell id="aTRD9flVusNCMsegPyxG-23" value="Message" style="text;html=1;align=center;verticalAlign=middle;whiteSpace=wrap;rounded=0;fillColor=#f8cecc;strokeColor=#b85450;" vertex="1" parent="1">
          <mxGeometry x="630" y="209" width="60" height="30" as="geometry" />
        </mxCell>
        <mxCell id="aTRD9flVusNCMsegPyxG-24" value="Message" style="text;html=1;align=center;verticalAlign=middle;whiteSpace=wrap;rounded=0;fillColor=#f8cecc;strokeColor=#b85450;" vertex="1" parent="1">
          <mxGeometry x="600" y="362" width="60" height="30" as="geometry" />
        </mxCell>
        <mxCell id="aTRD9flVusNCMsegPyxG-25" value="" style="endArrow=classic;html=1;rounded=0;exitX=1.005;exitY=0.203;exitDx=0;exitDy=0;entryX=0;entryY=0.5;entryDx=0;entryDy=0;exitPerimeter=0;" edge="1" parent="1" source="aTRD9flVusNCMsegPyxG-5" target="aTRD9flVusNCMsegPyxG-3">
          <mxGeometry width="50" height="50" relative="1" as="geometry">
            <mxPoint x="210" y="370" as="sourcePoint" />
            <mxPoint x="299" y="286" as="targetPoint" />
          </mxGeometry>
        </mxCell>
        <mxCell id="aTRD9flVusNCMsegPyxG-26" value="" style="endArrow=classic;html=1;rounded=0;exitX=1.013;exitY=0.319;exitDx=0;exitDy=0;entryX=0;entryY=0.5;entryDx=0;entryDy=0;exitPerimeter=0;" edge="1" parent="1" source="aTRD9flVusNCMsegPyxG-5" target="aTRD9flVusNCMsegPyxG-10">
          <mxGeometry width="50" height="50" relative="1" as="geometry">
            <mxPoint x="602" y="181" as="sourcePoint" />
            <mxPoint x="700" y="179" as="targetPoint" />
          </mxGeometry>
        </mxCell>
        <mxCell id="aTRD9flVusNCMsegPyxG-27" value="" style="endArrow=classic;html=1;rounded=0;exitX=1.008;exitY=0.416;exitDx=0;exitDy=0;entryX=0.008;entryY=0.601;entryDx=0;entryDy=0;exitPerimeter=0;entryPerimeter=0;" edge="1" parent="1" source="aTRD9flVusNCMsegPyxG-5" target="aTRD9flVusNCMsegPyxG-17">
          <mxGeometry width="50" height="50" relative="1" as="geometry">
            <mxPoint x="604" y="216" as="sourcePoint" />
            <mxPoint x="700" y="295" as="targetPoint" />
          </mxGeometry>
        </mxCell>
        <mxCell id="aTRD9flVusNCMsegPyxG-29" value="&lt;font style=&quot;font-size: 24px;&quot;&gt;Pub/Sub Messaging Channel&lt;/font&gt;" style="text;html=1;align=center;verticalAlign=middle;whiteSpace=wrap;rounded=0;fillColor=#e1d5e7;strokeColor=#9673a6;" vertex="1" parent="1">
          <mxGeometry x="280" y="442" width="320" height="38" as="geometry" />
        </mxCell>
        <mxCell id="aTRD9flVusNCMsegPyxG-30" value="&lt;div&gt;&lt;br&gt;&lt;/div&gt;&lt;div&gt;&lt;div style=&quot;background-color: rgb(255, 255, 255); font-family: Consolas, &amp;quot;Courier New&amp;quot;, monospace; font-size: 14px; line-height: 19px; white-space: pre;&quot;&gt;&lt;div&gt;&lt;b style=&quot;color: rgb(163, 21, 21);&quot;&gt;.....-topic&lt;/b&gt;&lt;br&gt;&lt;/div&gt;&lt;/div&gt;&lt;div&gt;&lt;br&gt;&lt;/div&gt;&lt;/div&gt;" style="rounded=1;whiteSpace=wrap;html=1;fillColor=#e1d5e7;strokeColor=#9673a6;" vertex="1" parent="1">
          <mxGeometry x="450" y="330" width="120" height="60" as="geometry" />
        </mxCell>
      </root>
    </mxGraphModel>
  </diagram>
</mxfile>
